<?xml version="1.0" standalone="no"?>
<!DOCTYPE svg PUBLIC "-//W3C//DTD SVG 20010904//EN"
 "http://www.w3.org/TR/2001/REC-SVG-20010904/DTD/svg10.dtd">
<svg version="1.0" xmlns="http://www.w3.org/2000/svg"
 width="1044.000000pt" height="1044.000000pt" viewBox="0 0 1044.000000 1044.000000"
 preserveAspectRatio="xMidYMid meet">
<metadata>
Created by potrace 1.14, written by Peter Selinger 2001-2017
</metadata>
<g transform="translate(0.000000,1044.000000) scale(0.100000,-0.100000)"
fill="#000000" stroke="none">
<path d="M3907 8412 l-368 -367 3 -111 3 -111 -110 -26 c-251 -60 -474 -150
-558 -226 -87 -78 -81 -47 -87 -490 l-5 -394 -287 -78 c-806 -219 -1610 -478
-2342 -756 -81 -31 -150 -62 -152 -68 -6 -14 1107 -2345 1118 -2345 5 0 123
77 263 170 l255 170 2 -477 3 -478 2 464 3 465 23 24 c12 13 34 30 50 38 l27
15 0 -435 c0 -279 4 -437 10 -441 7 -4 10 328 10 990 l0 996 338 -3 337 -3 57
-28 c119 -59 160 -150 178 -397 20 -281 -28 -452 -141 -502 -16 -7 -29 -15
-29 -18 0 -3 16 -12 35 -19 38 -13 74 -56 96 -111 10 -27 15 -136 19 -470 l6
-435 2 447 c1 289 -2 449 -8 453 -5 3 -10 16 -10 27 0 11 -20 41 -45 65 l-44
45 30 26 c38 31 79 95 79 121 0 11 5 23 10 26 6 3 10 30 10 60 0 30 5 57 10
60 6 3 10 33 10 65 0 53 3 61 29 79 16 12 34 21 40 21 15 0 16 -1426 1 -1435
-6 -4 -10 -68 -10 -161 0 -96 4 -154 10 -154 6 0 10 -124 10 -351 l0 -350 30
-44 c58 -84 178 -151 401 -226 66 -22 128 -38 137 -34 9 3 13 3 9 -1 -11 -11
208 -65 328 -80 16 -2 102 -15 190 -28 166 -25 383 -50 590 -66 66 -5 410 -10
766 -10 616 0 657 1 910 26 334 32 583 67 606 85 12 10 15 10 9 1 -6 -9 -2
-11 16 -8 22 5 208 49 344 82 127 30 354 118 354 137 0 6 3 8 6 4 10 -10 117
68 144 104 l24 34 1 1962 c1 1080 4 1965 6 1968 7 6 263 -32 374 -56 175 -38
475 -138 475 -158 0 -4 -117 -106 -259 -227 -143 -120 -259 -223 -257 -229 3
-12 2433 -511 2443 -502 9 9 -458 2187 -469 2187 -4 0 -113 -90 -242 -200
-129 -110 -237 -200 -240 -200 -3 0 -49 29 -103 64 -228 149 -485 272 -788
375 -252 87 -610 172 -875 209 l-55 7 -5 150 c-4 134 -7 153 -27 181 -63 88
-199 166 -402 230 l-121 38 0 503 0 503 -1417 0 -1418 0 -368 -368z m2901
-672 c1 -407 -1 -740 -4 -740 -3 0 -58 -9 -122 -20 -164 -28 -624 -77 -832
-89 -325 -19 -683 -23 -985 -12 -165 6 -326 14 -357 17 l-58 7 0 791 0 791
1177 -2 1178 -3 3 -740z m-639 -1781 c95 -20 184 -103 193 -179 3 -20 -3 -25
-47 -36 -70 -19 -71 -18 -92 24 -21 40 -88 82 -133 82 -14 0 -46 -10 -70 -22
-67 -34 -93 -88 -98 -205 -5 -107 9 -174 44 -221 32 -42 73 -62 124 -62 70 0
128 45 145 113 4 15 11 29 15 32 4 2 35 -5 68 -16 l61 -21 -18 -49 c-26 -68
-73 -123 -129 -151 -39 -19 -63 -23 -142 -23 -114 0 -153 17 -224 96 -67 74
-90 155 -83 292 6 119 16 158 60 223 71 106 193 152 326 123z m-2229 -64 l0
-55 -105 0 -105 0 0 -305 0 -305 -65 0 -65 0 0 305 0 305 -105 0 -105 0 0 55
0 55 275 0 275 0 0 -55z m165 33 c3 -13 25 -122 50 -242 25 -121 47 -221 48
-223 2 -2 32 107 67 242 l63 245 83 0 83 0 10 -37 c6 -21 33 -132 60 -247 28
-115 52 -210 54 -212 2 -3 26 107 53 243 l50 248 70 3 70 3 -80 -361 -79 -360
-77 0 -76 0 -68 270 c-38 149 -71 268 -73 266 -2 -2 -33 -116 -69 -252 -35
-137 -67 -257 -70 -266 -4 -15 -18 -18 -79 -18 -67 0 -73 2 -78 23 -3 12 -38
166 -77 342 -39 176 -73 328 -76 338 -5 15 3 17 65 17 65 0 71 -2 76 -22z
m965 -338 l0 -360 -65 0 -65 0 0 360 0 360 65 0 65 0 0 -360z m640 305 l0 -55
-105 0 -105 0 0 -305 0 -305 -65 0 -65 0 0 305 0 305 -100 0 -100 0 0 55 0 55
270 0 270 0 0 -55z m920 -85 l0 -140 145 0 145 0 0 140 0 140 65 0 65 0 0
-360 0 -360 -65 0 -65 0 0 160 0 160 -145 0 -145 0 0 -160 0 -160 -65 0 -65 0
0 360 0 360 65 0 65 0 0 -140z m-2331 -871 c114 -26 229 -115 275 -213 38 -82
46 -144 46 -366 l0 -210 -185 0 -185 0 0 180 c0 200 -9 244 -53 255 -43 11
-79 1 -101 -28 -21 -28 -21 -38 -24 -588 -2 -375 1 -573 8 -599 20 -73 101
-94 144 -37 20 27 21 43 24 253 l3 224 191 0 191 0 -6 -247 c-6 -260 -16 -332
-58 -414 -50 -98 -156 -174 -277 -200 -33 -6 -102 -10 -164 -7 -99 4 -113 7
-182 41 -110 55 -175 136 -222 277 -16 50 -19 105 -22 595 -2 362 0 573 8 640
29 250 125 392 300 441 55 15 229 17 289 3z m1103 -18 c111 -43 182 -119 230
-247 22 -58 23 -65 26 -675 3 -688 2 -704 -63 -836 -43 -88 -120 -162 -203
-194 -49 -20 -75 -23 -193 -24 l-135 0 -76 38 c-91 44 -136 92 -185 194 -61
127 -64 169 -61 830 3 568 4 590 25 650 52 155 147 246 293 283 19 5 91 8 160
6 100 -2 136 -7 182 -25z m-1842 -171 l0 -190 -182 -2 -183 -3 -3 -192 -2
-193 180 0 180 0 0 -185 0 -185 -177 -2 -178 -3 -3 -227 -2 -228 200 0 200 0
0 -190 0 -190 -385 0 -385 0 0 990 0 990 370 0 370 0 0 -190z m2618 -437 c66
-648 72 -706 78 -700 3 3 124 1298 124 1323 0 2 79 4 175 4 l175 0 0 -27 c-1
-16 -52 -460 -114 -988 l-112 -960 -257 -3 c-142 -1 -257 2 -257 6 0 5 -38
337 -85 738 -47 401 -96 826 -110 944 -14 118 -28 232 -31 253 l-6 37 179 0
178 0 63 -627z m1422 437 l0 -190 -185 0 -185 0 0 -195 0 -195 175 0 175 0 0
-185 0 -185 -175 0 -175 0 0 -230 0 -230 195 0 195 0 0 -190 0 -190 -385 0
-385 0 0 990 0 990 375 0 375 0 0 -190z"/>
<path d="M5255 7968 c-3 -7 -4 -211 -3 -453 l3 -440 130 -3 c72 -1 140 0 153
3 l22 5 -2 448 -3 447 -148 3 c-112 2 -149 0 -152 -10z"/>
<path d="M6066 7964 c-3 -8 -6 -208 -6 -444 0 -352 2 -430 14 -439 9 -8 59
-11 152 -9 l139 3 0 450 0 450 -146 3 c-127 2 -147 0 -153 -14z"/>
<path d="M5141 4564 c-11 -14 -23 -40 -26 -58 -3 -17 -5 -282 -3 -588 3 -548
3 -557 24 -585 17 -23 29 -28 64 -28 35 0 47 5 64 28 21 28 21 37 24 580 2
304 0 571 -3 595 -8 57 -34 82 -84 82 -31 0 -44 -6 -60 -26z"/>
<path d="M7739 4946 c-2 -2 -2 -451 1 -998 l5 -993 195 0 195 -1 -192 3 -193
3 0 990 0 990 283 0 c384 0 435 -9 522 -89 22 -20 32 -27 24 -16 -9 11 -19 28
-22 37 -3 9 -35 30 -70 47 l-65 31 -339 0 c-187 0 -342 -2 -344 -4z"/>
<path d="M8601 4790 c14 -31 19 -36 19 -24 0 6 -7 19 -16 30 -14 18 -14 18 -3
-6z"/>
<path d="M8642 4670 c0 -14 2 -19 5 -12 2 6 2 18 0 25 -3 6 -5 1 -5 -13z"/>
<path d="M8653 4605 c0 -22 2 -30 4 -17 2 12 2 30 0 40 -3 9 -5 -1 -4 -23z"/>
<path d="M2150 4385 l0 -185 53 0 c30 0 62 6 73 15 33 22 46 90 42 208 -4 134
-13 147 -105 147 l-63 0 0 -185z"/>
<path d="M8240 4563 c8 -3 22 -11 30 -17 13 -10 13 -9 1 7 -7 9 -21 17 -30 16
-13 0 -14 -1 -1 -6z"/>
<path d="M8664 4405 c0 -82 2 -115 3 -72 2 43 2 110 0 150 -1 40 -3 5 -3 -78z"/>
<path d="M8293 4460 c0 -25 2 -35 4 -22 2 12 2 32 0 45 -2 12 -4 2 -4 -23z"/>
<path d="M8293 4340 c0 -25 2 -35 4 -22 2 12 2 32 0 45 -2 12 -4 2 -4 -23z"/>
<path d="M8651 4224 c0 -11 3 -14 6 -6 3 7 2 16 -1 19 -3 4 -6 -2 -5 -13z"/>
<path d="M8158 4203 c18 -2 45 -2 60 0 15 2 0 4 -33 4 -33 0 -45 -2 -27 -4z"/>
<path d="M8641 4174 c0 -11 3 -14 6 -6 3 7 2 16 -1 19 -3 4 -6 -2 -5 -13z"/>
<path d="M8622 4122 c-5 -16 -25 -46 -43 -68 l-33 -39 31 29 c32 28 69 93 60
102 -3 3 -9 -8 -15 -24z"/>
<path d="M8515 4008 c-30 -16 -31 -18 -15 -28 20 -13 33 -12 25 0 -4 6 -1 17
5 25 15 18 12 18 -15 3z"/>
<path d="M8552 3954 c10 -10 20 -16 22 -13 3 3 -5 11 -17 18 -21 13 -21 12 -5
-5z"/>
<path d="M8604 3886 c12 -23 22 -39 24 -35 4 9 -24 66 -36 73 -5 3 1 -14 12
-38z"/>
<path d="M2163 3853 c9 -2 23 -2 30 0 6 3 -1 5 -18 5 -16 0 -22 -2 -12 -5z"/>
<path d="M8148 3853 c12 -2 30 -2 40 0 9 3 -1 5 -23 4 -22 0 -30 -2 -17 -4z"/>
<path d="M2241 3824 c14 -16 30 -38 34 -49 8 -19 8 -19 13 -1 5 23 -28 70 -54
75 -16 3 -15 -1 7 -25z"/>
<path d="M8235 3825 l25 -24 0 -426 0 -425 193 2 192 3 -187 2 -188 3 0 419
c0 408 -1 419 -21 445 -11 14 -24 26 -29 26 -5 0 2 -11 15 -25z"/>
<path d="M8632 3805 c0 -16 2 -22 5 -12 2 9 2 23 0 30 -3 6 -5 -1 -5 -18z"/>
<path d="M8644 3540 c0 -129 2 -182 3 -117 2 64 2 170 0 235 -1 64 -3 11 -3
-118z"/>
<path d="M1656 2787 c3 -10 9 -15 12 -12 3 3 0 11 -7 18 -10 9 -11 8 -5 -6z"/>
<path d="M1670 2756 c0 -2 8 -10 18 -17 15 -13 16 -12 3 4 -13 16 -21 21 -21
13z"/>
</g>
</svg>
